<svg xmlns="http://www.w3.org/2000/svg" viewBox="0 0 800 1000" role="img" aria-label="Флорист собирает букет за рабочим столом, рядом телефон с заказом"><title>Флорист собирает букет за рабочим столом, рядом телефон с заказом</title><rect width="800" height="1000" fill="#e9e2d3"/><rect x="0" y="0" width="800" height="560" fill="#dfe6dc"/><rect x="500" y="60" width="240" height="330" rx="120" fill="#cfdccf"/><rect x="520" y="80" width="200" height="290" rx="100" fill="#eef3ea"/><line x1="620" y1="80" x2="620" y2="370" stroke="#cfdccf" stroke-width="6"/><path d="M210,560 C210,420 260,360 340,350 L420,350 C500,360 550,420 550,560Z" fill="#18372c"/><path d="M300,380 L460,380 L470,560 L290,560Z" fill="#e8e3d7"/><path d="M330,360 Q380,410 430,360" fill="none" stroke="#e8e3d7" stroke-width="10"/><rect x="355" y="290" width="50" height="70" rx="20" fill="#d79f7d"/><ellipse cx="380" cy="240" rx="70" ry="82" fill="#e9b896"/><path d="M306,250 C296,150 360,130 400,140 C460,150 470,200 456,260 C440,210 400,190 360,196 C330,200 316,230 306,250Z" fill="#5a3b2b"/><circle cx="440" cy="178" r="34" fill="#5a3b2b"/><rect x="0" y="560" width="800" height="440" fill="#c9a37a"/><rect x="0" y="560" width="800" height="18" fill="#b58b5f"/><g transform="translate(0,0)"><path d="M192.5,567.5 L353.0,822.5 L407.0,822.5 L567.5,567.5 Q380.0,507.5 192.5,567.5Z" fill="#b58b5f"/><g><path d="M380.0,560.0 L503.6,528.7" stroke="#6f8f7c" stroke-width="2"/><circle cx="398.0" cy="544.6" r="9.5" fill="#9bb7a3"/><circle cx="403.2" cy="564.9" r="9.5" fill="#9bb7a3"/><circle cx="418.8" cy="540.2" r="8.8" fill="#9bb7a3"/><circle cx="423.6" cy="558.9" r="8.8" fill="#9bb7a3"/><circle cx="439.6" cy="535.8" r="8.0" fill="#9bb7a3"/><circle cx="444.0" cy="552.9" r="8.0" fill="#9bb7a3"/><circle cx="460.4" cy="531.4" r="7.3" fill="#9bb7a3"/><circle cx="464.4" cy="546.9" r="7.3" fill="#9bb7a3"/><circle cx="481.2" cy="527.0" r="6.5" fill="#9bb7a3"/><circle cx="484.7" cy="540.9" r="6.5" fill="#9bb7a3"/></g><g><path d="M380.0,560.0 L226.7,526.6" stroke="#6f8f7c" stroke-width="2"/><circle cx="351.7" cy="567.0" r="11.7" fill="#9bb7a3"/><circle cx="357.2" cy="541.8" r="11.7" fill="#9bb7a3"/><circle cx="326.4" cy="560.5" r="10.8" fill="#9bb7a3"/><circle cx="331.4" cy="537.2" r="10.8" fill="#9bb7a3"/><circle cx="301.0" cy="553.9" r="9.9" fill="#9bb7a3"/><circle cx="305.7" cy="532.7" r="9.9" fill="#9bb7a3"/><circle cx="275.7" cy="547.3" r="9.0" fill="#9bb7a3"/><circle cx="279.9" cy="528.1" r="9.0" fill="#9bb7a3"/><circle cx="250.4" cy="540.8" r="8.1" fill="#9bb7a3"/><circle cx="254.2" cy="523.5" r="8.1" fill="#9bb7a3"/></g><g><path d="M380.0,560.0 L321.6,436.8" stroke="#6f8f7c" stroke-width="2"/><circle cx="360.1" cy="544.3" r="10.2" fill="#9bb7a3"/><circle cx="380.4" cy="534.7" r="10.2" fill="#9bb7a3"/><circle cx="351.2" cy="523.4" r="9.4" fill="#9bb7a3"/><circle cx="369.8" cy="514.5" r="9.4" fill="#9bb7a3"/><circle cx="342.2" cy="502.5" r="8.6" fill="#9bb7a3"/><circle cx="359.3" cy="494.4" r="8.6" fill="#9bb7a3"/><circle cx="333.3" cy="481.6" r="7.8" fill="#9bb7a3"/><circle cx="348.8" cy="474.2" r="7.8" fill="#9bb7a3"/><circle cx="324.4" cy="460.7" r="7.0" fill="#9bb7a3"/><circle cx="338.3" cy="454.1" r="7.0" fill="#9bb7a3"/></g><path d="M376.5,560.0 Q463.4,583.2 520.8,514.0 Q434.0,490.8 376.5,560.0Z" fill="#7fa58a"/><g><path d="M380.0,560.0 L432.3,458.2" stroke="#6f8f7c" stroke-width="2"/><circle cx="380.4" cy="538.7" r="8.5" fill="#9bb7a3"/><circle cx="397.1" cy="547.3" r="8.5" fill="#9bb7a3"/><circle cx="389.7" cy="522.1" r="7.9" fill="#9bb7a3"/><circle cx="405.1" cy="530.0" r="7.9" fill="#9bb7a3"/><circle cx="399.1" cy="505.5" r="7.2" fill="#9bb7a3"/><circle cx="413.2" cy="512.7" r="7.2" fill="#9bb7a3"/><circle cx="408.4" cy="488.9" r="6.5" fill="#9bb7a3"/><circle cx="421.2" cy="495.4" r="6.5" fill="#9bb7a3"/><circle cx="417.8" cy="472.2" r="5.9" fill="#9bb7a3"/><circle cx="429.3" cy="478.1" r="5.9" fill="#9bb7a3"/></g><g><path d="M380.0,560.0 L363.8,397.7" stroke="#6f8f7c" stroke-width="2"/><circle cx="364.0" cy="534.3" r="12.2" fill="#9bb7a3"/><circle cx="390.6" cy="531.6" r="12.2" fill="#9bb7a3"/><circle cx="362.3" cy="507.1" r="11.2" fill="#9bb7a3"/><circle cx="386.9" cy="504.7" r="11.2" fill="#9bb7a3"/><circle cx="360.7" cy="479.9" r="10.3" fill="#9bb7a3"/><circle cx="383.2" cy="477.7" r="10.3" fill="#9bb7a3"/><circle cx="359.0" cy="452.8" r="9.3" fill="#9bb7a3"/><circle cx="379.4" cy="450.8" r="9.3" fill="#9bb7a3"/><circle cx="357.4" cy="425.6" r="8.4" fill="#9bb7a3"/><circle cx="375.7" cy="423.8" r="8.4" fill="#9bb7a3"/></g><path d="M363.2,560.0 Q434.9,568.8 472.9,507.4 Q401.2,498.6 363.2,560.0Z" fill="#3f6b52"/><path d="M407.1,560.0 Q502.0,595.8 574.3,524.6 Q479.4,488.8 407.1,560.0Z" fill="#3f6b52"/><path d="M378.3,560.0 Q468.3,549.1 496.0,462.8 Q406.1,473.8 378.3,560.0Z" fill="#3f6b52"/><g><path d="M380.0,560.0 L376.7,429.2" stroke="#6f8f7c" stroke-width="2"/><circle cx="368.7" cy="538.5" r="9.8" fill="#9bb7a3"/><circle cx="390.2" cy="537.9" r="9.8" fill="#9bb7a3"/><circle cx="369.0" cy="516.7" r="9.0" fill="#9bb7a3"/><circle cx="388.8" cy="516.2" r="9.0" fill="#9bb7a3"/><circle cx="369.3" cy="494.8" r="8.2" fill="#9bb7a3"/><circle cx="387.4" cy="494.4" r="8.2" fill="#9bb7a3"/><circle cx="369.6" cy="473.0" r="7.5" fill="#9bb7a3"/><circle cx="386.0" cy="472.6" r="7.5" fill="#9bb7a3"/><circle cx="369.8" cy="451.2" r="6.7" fill="#9bb7a3"/><circle cx="384.6" cy="450.8" r="6.7" fill="#9bb7a3"/></g><path d="M351.2,560.0 Q378.3,490.2 326.2,436.5 Q299.2,506.3 351.2,560.0Z" fill="#5b8a6c"/><g><path d="M380.0,560.0 L255.0,497.3" stroke="#6f8f7c" stroke-width="2"/><circle cx="354.0" cy="559.8" r="10.4" fill="#9bb7a3"/><circle cx="364.3" cy="539.3" r="10.4" fill="#9bb7a3"/><circle cx="333.6" cy="548.6" r="9.6" fill="#9bb7a3"/><circle cx="343.1" cy="529.6" r="9.6" fill="#9bb7a3"/><circle cx="313.1" cy="537.3" r="8.8" fill="#9bb7a3"/><circle cx="321.8" cy="520.0" r="8.8" fill="#9bb7a3"/><circle cx="292.7" cy="526.1" r="8.0" fill="#9bb7a3"/><circle cx="300.6" cy="510.3" r="8.0" fill="#9bb7a3"/><circle cx="272.3" cy="514.8" r="7.2" fill="#9bb7a3"/><circle cx="279.4" cy="500.7" r="7.2" fill="#9bb7a3"/></g><g><path d="M380.0,560.0 L327.6,452.5" stroke="#6f8f7c" stroke-width="2"/><circle cx="362.4" cy="546.4" r="8.9" fill="#9bb7a3"/><circle cx="380.1" cy="537.8" r="8.9" fill="#9bb7a3"/><circle cx="354.4" cy="528.1" r="8.2" fill="#9bb7a3"/><circle cx="370.7" cy="520.2" r="8.2" fill="#9bb7a3"/><circle cx="346.3" cy="509.9" r="7.5" fill="#9bb7a3"/><circle cx="361.2" cy="502.6" r="7.5" fill="#9bb7a3"/><circle cx="338.3" cy="491.6" r="6.8" fill="#9bb7a3"/><circle cx="351.8" cy="485.0" r="6.8" fill="#9bb7a3"/><circle cx="330.2" cy="473.4" r="6.1" fill="#9bb7a3"/><circle cx="342.4" cy="467.4" r="6.1" fill="#9bb7a3"/></g><path d="M384.2,560.0 Q439.1,480.4 389.7,397.2 Q334.9,476.9 384.2,560.0Z" fill="#2f5a44"/><path d="M380.0,560.0 l-122.3,-110.7" stroke="#6f8f7c" stroke-width="1.6"/><circle cx="366.8" cy="542.8" r="3" fill="#f7dcd6"/><circle cx="351.6" cy="528.9" r="3" fill="#f7dcd6"/><circle cx="336.3" cy="515.1" r="3" fill="#f7dcd6"/><circle cx="321.0" cy="501.3" r="3" fill="#f7dcd6"/><circle cx="305.7" cy="487.4" r="3" fill="#f7dcd6"/><circle cx="290.4" cy="473.6" r="3" fill="#f7dcd6"/><circle cx="275.1" cy="459.7" r="3" fill="#f7dcd6"/><path d="M380.0,560.0 l72.8,-148.1" stroke="#6f8f7c" stroke-width="1.6"/><circle cx="392.9" cy="542.6" r="3" fill="#ecc06a"/><circle cx="402.0" cy="524.1" r="3" fill="#ecc06a"/><circle cx="411.2" cy="505.6" r="3" fill="#ecc06a"/><circle cx="420.3" cy="487.1" r="3" fill="#ecc06a"/><circle cx="429.4" cy="468.6" r="3" fill="#ecc06a"/><circle cx="438.5" cy="450.1" r="3" fill="#ecc06a"/><circle cx="447.6" cy="431.6" r="3" fill="#ecc06a"/><path d="M380.0,560.0 l96.4,-133.9" stroke="#6f8f7c" stroke-width="1.6"/><circle cx="395.6" cy="545.0" r="3" fill="#f7dcd6"/><circle cx="407.7" cy="528.3" r="3" fill="#f7dcd6"/><circle cx="419.7" cy="511.5" r="3" fill="#f7dcd6"/><circle cx="431.8" cy="494.8" r="3" fill="#f7dcd6"/><circle cx="443.8" cy="478.0" r="3" fill="#f7dcd6"/><circle cx="455.9" cy="461.3" r="3" fill="#f7dcd6"/><circle cx="467.9" cy="444.6" r="3" fill="#f7dcd6"/><path d="M380.0,560.0 l-35.0,-161.2" stroke="#6f8f7c" stroke-width="1.6"/><circle cx="379.3" cy="538.3" r="3" fill="#fffdf7"/><circle cx="374.9" cy="518.2" r="3" fill="#fffdf7"/><circle cx="370.6" cy="498.0" r="3" fill="#fffdf7"/><circle cx="366.2" cy="477.9" r="3" fill="#fffdf7"/><circle cx="361.8" cy="457.7" r="3" fill="#fffdf7"/><circle cx="357.4" cy="437.6" r="3" fill="#fffdf7"/><circle cx="353.0" cy="417.4" r="3" fill="#fffdf7"/><circle cx="419.9" cy="437.3" r="23.0" fill="#f5b8a4"/><circle cx="413.3" cy="458.0" r="23.0" fill="#f5b8a4"/><circle cx="402.0" cy="465.1" r="23.0" fill="#f5b8a4"/><circle cx="379.4" cy="460.8" r="23.0" fill="#f5b8a4"/><circle cx="369.8" cy="444.7" r="23.0" fill="#f5b8a4"/><circle cx="372.2" cy="429.4" r="23.0" fill="#f5b8a4"/><circle cx="379.6" cy="420.6" r="23.0" fill="#f5b8a4"/><circle cx="397.3" cy="415.6" r="23.0" fill="#f5b8a4"/><circle cx="413.9" cy="424.1" r="23.0" fill="#f5b8a4"/><circle cx="408.9" cy="445.1" r="17.5" fill="#e5775b"/><circle cx="400.2" cy="454.5" r="17.5" fill="#e5775b"/><circle cx="387.5" cy="453.5" r="17.5" fill="#e5775b"/><circle cx="380.3" cy="443.0" r="17.5" fill="#e5775b"/><circle cx="384.0" cy="430.8" r="17.5" fill="#e5775b"/><circle cx="395.9" cy="426.1" r="17.5" fill="#e5775b"/><circle cx="407.0" cy="432.5" r="17.5" fill="#e5775b"/><circle cx="394.8" cy="440.8" r="13.8" fill="#f09a80"/><circle cx="398.5" cy="443.1" r="6.0" fill="#c9583f" opacity=".7"/><circle cx="316.2" cy="459.4" r="29.5" fill="#f5b8a4"/><circle cx="308.2" cy="475.7" r="29.5" fill="#f5b8a4"/><circle cx="286.1" cy="486.2" r="29.5" fill="#f5b8a4"/><circle cx="265.2" cy="480.1" r="29.5" fill="#f5b8a4"/><circle cx="254.0" cy="465.6" r="29.5" fill="#f5b8a4"/><circle cx="253.4" cy="443.5" r="29.5" fill="#f5b8a4"/><circle cx="271.0" cy="424.1" r="29.5" fill="#f5b8a4"/><circle cx="287.0" cy="421.4" r="29.5" fill="#f5b8a4"/><circle cx="308.8" cy="432.5" r="29.5" fill="#f5b8a4"/><circle cx="302.3" cy="459.4" r="22.4" fill="#e5775b"/><circle cx="291.1" cy="471.4" r="22.4" fill="#e5775b"/><circle cx="274.8" cy="470.1" r="22.4" fill="#e5775b"/><circle cx="265.6" cy="456.6" r="22.4" fill="#e5775b"/><circle cx="270.4" cy="440.9" r="22.4" fill="#e5775b"/><circle cx="285.7" cy="434.9" r="22.4" fill="#e5775b"/><circle cx="299.9" cy="443.2" r="22.4" fill="#e5775b"/><circle cx="284.2" cy="453.8" r="17.7" fill="#f09a80"/><circle cx="289.0" cy="456.7" r="7.7" fill="#c9583f" opacity=".7"/><circle cx="495.8" cy="487.0" r="41.1" fill="#c9583f"/><circle cx="495.8" cy="487.0" r="35.3" fill="#e5775b"/><path d="M468.6,487.0 A27.1,27.1 0 1 1 512.0,505.9" fill="none" stroke="#c9583f" stroke-width="2.9" stroke-linecap="round" transform="rotate(120 495.8 487.0)"/><path d="M476.9,487.0 A18.9,18.9 0 1 1 507.1,500.2" fill="none" stroke="#c9583f" stroke-width="2.9" stroke-linecap="round" transform="rotate(216 495.8 487.0)"/><path d="M484.7,487.0 A11.1,11.1 0 1 1 502.4,494.7" fill="none" stroke="#c9583f" stroke-width="2.9" stroke-linecap="round" transform="rotate(302 495.8 487.0)"/><circle cx="485.5" cy="474.6" r="9.0" fill="#f09a80" opacity=".55"/><circle cx="241.6" cy="506.0" r="40.9" fill="#c9583f"/><circle cx="241.6" cy="506.0" r="35.2" fill="#e5775b"/><path d="M214.6,506.0 A27.0,27.0 0 1 1 257.7,524.9" fill="none" stroke="#c9583f" stroke-width="2.9" stroke-linecap="round" transform="rotate(160 241.6 506.0)"/><path d="M222.7,506.0 A18.8,18.8 0 1 1 252.8,519.2" fill="none" stroke="#c9583f" stroke-width="2.9" stroke-linecap="round" transform="rotate(305 241.6 506.0)"/><path d="M230.5,506.0 A11.0,11.0 0 1 1 248.2,513.7" fill="none" stroke="#c9583f" stroke-width="2.9" stroke-linecap="round" transform="rotate(329 241.6 506.0)"/><circle cx="231.3" cy="493.7" r="9.0" fill="#f09a80" opacity=".55"/><circle cx="354.3" cy="506.1" r="31.2" fill="#f5b8a4"/><circle cx="348.6" cy="532.5" r="31.2" fill="#f5b8a4"/><circle cx="321.2" cy="547.0" r="31.2" fill="#f5b8a4"/><circle cx="303.9" cy="542.6" r="31.2" fill="#f5b8a4"/><circle cx="287.1" cy="520.1" r="31.2" fill="#f5b8a4"/><circle cx="287.7" cy="502.8" r="31.2" fill="#f5b8a4"/><circle cx="302.4" cy="483.5" r="31.2" fill="#f5b8a4"/><circle cx="321.9" cy="478.3" r="31.2" fill="#f5b8a4"/><circle cx="350.0" cy="494.8" r="31.2" fill="#f5b8a4"/><circle cx="339.7" cy="518.5" r="23.7" fill="#e5775b"/><circle cx="327.9" cy="531.2" r="23.7" fill="#e5775b"/><circle cx="310.6" cy="529.9" r="23.7" fill="#e5775b"/><circle cx="300.8" cy="515.6" r="23.7" fill="#e5775b"/><circle cx="306.0" cy="499.0" r="23.7" fill="#e5775b"/><circle cx="322.1" cy="492.7" r="23.7" fill="#e5775b"/><circle cx="337.1" cy="501.4" r="23.7" fill="#e5775b"/><circle cx="320.6" cy="512.6" r="18.7" fill="#f09a80"/><circle cx="325.6" cy="515.8" r="8.1" fill="#c9583f" opacity=".7"/><circle cx="397.9" cy="515.1" r="55.7" fill="#c9583f"/><circle cx="397.9" cy="515.1" r="47.9" fill="#e5775b"/><path d="M361.1,515.1 A36.7,36.7 0 1 1 419.9,540.8" fill="none" stroke="#c9583f" stroke-width="3.9" stroke-linecap="round" transform="rotate(198 397.9 515.1)"/><path d="M372.3,515.1 A25.6,25.6 0 1 1 413.3,533.0" fill="none" stroke="#c9583f" stroke-width="3.9" stroke-linecap="round" transform="rotate(319 397.9 515.1)"/><path d="M382.9,515.1 A15.0,15.0 0 1 1 406.9,525.6" fill="none" stroke="#c9583f" stroke-width="3.9" stroke-linecap="round" transform="rotate(347 397.9 515.1)"/><circle cx="384.0" cy="498.4" r="12.2" fill="#f09a80" opacity=".55"/><circle cx="479.9" cy="548.5" r="22.6" fill="#f5b8a4"/><circle cx="472.2" cy="567.4" r="22.6" fill="#f5b8a4"/><circle cx="458.0" cy="574.0" r="22.6" fill="#f5b8a4"/><circle cx="445.1" cy="572.1" r="22.6" fill="#f5b8a4"/><circle cx="430.6" cy="553.8" r="22.6" fill="#f5b8a4"/><circle cx="431.5" cy="541.7" r="22.6" fill="#f5b8a4"/><circle cx="443.1" cy="527.6" r="22.6" fill="#f5b8a4"/><circle cx="457.6" cy="524.7" r="22.6" fill="#f5b8a4"/><circle cx="474.3" cy="533.7" r="22.6" fill="#f5b8a4"/><circle cx="468.8" cy="553.7" r="17.1" fill="#e5775b"/><circle cx="460.3" cy="562.8" r="17.1" fill="#e5775b"/><circle cx="447.8" cy="561.9" r="17.1" fill="#e5775b"/><circle cx="440.8" cy="551.5" r="17.1" fill="#e5775b"/><circle cx="444.5" cy="539.6" r="17.1" fill="#e5775b"/><circle cx="456.1" cy="535.0" r="17.1" fill="#e5775b"/><circle cx="467.0" cy="541.3" r="17.1" fill="#e5775b"/><circle cx="455.1" cy="549.4" r="13.5" fill="#f09a80"/><circle cx="458.7" cy="551.6" r="5.9" fill="#c9583f" opacity=".7"/><circle cx="514.0" cy="558.8" r="44.4" fill="#7e2d45"/><circle cx="514.0" cy="558.8" r="38.2" fill="#a3405a"/><path d="M484.7,558.8 A29.3,29.3 0 1 1 531.6,579.3" fill="none" stroke="#7e2d45" stroke-width="3.1" stroke-linecap="round" transform="rotate(161 514.0 558.8)"/><path d="M493.6,558.8 A20.4,20.4 0 1 1 526.2,573.1" fill="none" stroke="#7e2d45" stroke-width="3.1" stroke-linecap="round" transform="rotate(118 514.0 558.8)"/><path d="M502.0,558.8 A12.0,12.0 0 1 1 521.2,567.2" fill="none" stroke="#7e2d45" stroke-width="3.1" stroke-linecap="round" transform="rotate(200 514.0 558.8)"/><circle cx="502.9" cy="545.5" r="9.8" fill="#c4637a" opacity=".55"/><circle cx="349.3" cy="577.1" r="43.1" fill="#7e2d45"/><circle cx="349.3" cy="577.1" r="37.1" fill="#a3405a"/><path d="M320.9,577.1 A28.5,28.5 0 1 1 366.4,597.1" fill="none" stroke="#7e2d45" stroke-width="3.0" stroke-linecap="round" transform="rotate(336 349.3 577.1)"/><path d="M329.5,577.1 A19.8,19.8 0 1 1 361.2,591.0" fill="none" stroke="#7e2d45" stroke-width="3.0" stroke-linecap="round" transform="rotate(258 349.3 577.1)"/><path d="M337.7,577.1 A11.6,11.6 0 1 1 356.3,585.3" fill="none" stroke="#7e2d45" stroke-width="3.0" stroke-linecap="round" transform="rotate(323 349.3 577.1)"/><circle cx="338.6" cy="564.2" r="9.5" fill="#c4637a" opacity=".55"/><circle cx="275.3" cy="585.5" r="46.0" fill="#c9583f"/><circle cx="275.3" cy="585.5" r="39.6" fill="#e5775b"/><path d="M244.9,585.5 A30.4,30.4 0 1 1 293.5,606.7" fill="none" stroke="#c9583f" stroke-width="3.2" stroke-linecap="round" transform="rotate(352 275.3 585.5)"/><path d="M254.1,585.5 A21.2,21.2 0 1 1 288.0,600.3" fill="none" stroke="#c9583f" stroke-width="3.2" stroke-linecap="round" transform="rotate(135 275.3 585.5)"/><path d="M262.9,585.5 A12.4,12.4 0 1 1 282.7,594.2" fill="none" stroke="#c9583f" stroke-width="3.2" stroke-linecap="round" transform="rotate(216 275.3 585.5)"/><circle cx="263.8" cy="571.7" r="10.1" fill="#f09a80" opacity=".55"/><circle cx="423.4" cy="600.6" r="47.1" fill="#c9583f"/><circle cx="423.4" cy="600.6" r="40.5" fill="#e5775b"/><path d="M392.3,600.6 A31.1,31.1 0 1 1 442.1,622.3" fill="none" stroke="#c9583f" stroke-width="3.3" stroke-linecap="round" transform="rotate(162 423.4 600.6)"/><path d="M401.7,600.6 A21.7,21.7 0 1 1 436.4,615.8" fill="none" stroke="#c9583f" stroke-width="3.3" stroke-linecap="round" transform="rotate(273 423.4 600.6)"/><path d="M410.7,600.6 A12.7,12.7 0 1 1 431.0,609.5" fill="none" stroke="#c9583f" stroke-width="3.3" stroke-linecap="round" transform="rotate(300 423.4 600.6)"/><circle cx="411.6" cy="586.5" r="10.4" fill="#f09a80" opacity=".55"/><path d="M222.5,650.0 L350.0,830.0 L410.0,830.0 L537.5,650.0 Q425.0,702.5 380.0,680.0 Q335.0,702.5 222.5,650.0Z" fill="#c9a37a"/><path d="M305.0,687.5 L362.0,800.0" stroke="#b58b5f" stroke-width="2" opacity=".6"/><path d="M462.5,687.5 L401.0,792.5" stroke="#b58b5f" stroke-width="2" opacity=".6"/><rect x="335.0" y="737.0" width="90.0" height="19.5" rx="3" fill="#e5775b"/><path d="M380.0,746.0 q-45.0,-37.5 -57.0,0 q15.0,30.0 57.0,0Z M380.0,746.0 q45.0,-37.5 57.0,0 q-15.0,30.0 -57.0,0Z" fill="#e5775b"/><path d="M374.0,752.0 l-27.0,60.0 M386.0,752.0 l30.0,57.0" stroke="#e5775b" stroke-width="9.0" stroke-linecap="round"/></g><g transform="translate(170 640) rotate(-25) scale(1)"><rect x="-150" y="-26" width="150" height="52" rx="22" fill="#fffdf7"/><path d="M-10,-28 C30,-34 70,-30 88,-16 C104,-14 112,-4 104,4 C112,12 106,22 94,22 C98,32 86,38 74,32 L30,30 C10,30 -6,24 -10,20Z" fill="#e9b896"/><path d="M40,-30 C58,-46 76,-44 72,-32" fill="#e9b896"/><path d="M70,-6 L96,-4 M68,10 L92,12" stroke="#d79f7d" stroke-width="2" stroke-linecap="round"/></g><g transform="translate(590 640) scale(-1 1)"><g transform="translate(0 0) rotate(-25) scale(1)"><rect x="-150" y="-26" width="150" height="52" rx="22" fill="#fffdf7"/><path d="M-10,-28 C30,-34 70,-30 88,-16 C104,-14 112,-4 104,4 C112,12 106,22 94,22 C98,32 86,38 74,32 L30,30 C10,30 -6,24 -10,20Z" fill="#e9b896"/><path d="M40,-30 C58,-46 76,-44 72,-32" fill="#e9b896"/><path d="M70,-6 L96,-4 M68,10 L92,12" stroke="#d79f7d" stroke-width="2" stroke-linecap="round"/></g></g><g transform="translate(600 780) rotate(-8)"><rect width="120" height="190" rx="16.8" fill="#10261f"/><rect x="6.0" y="6.0" width="108.0" height="178.0" rx="12.0" fill="#fffdf7"/><rect x="14" y="22" width="92" height="60" rx="8" fill="#f6dcd2"/><rect x="14" y="94" width="70" height="8" rx="4" fill="#18372c"/><rect x="14" y="110" width="50" height="8" rx="4" fill="#62746b"/><rect x="14" y="140" width="92" height="26" rx="13" fill="#e5775b"/></g><g transform="translate(90 820) rotate(10)"><rect width="150" height="100" rx="6" fill="#fffdf7"/><text x="18" y="48" font-family="VF Hand, Caveat, Segoe Print, Comic Sans MS, cursive" font-size="26" fill="#18372c">С любовью</text><path d="M18 66 h90" stroke="#e5775b" stroke-width="3"/></g><path d="M470,880 l40,-30 M490,890 l30,-36" stroke="#18372c" stroke-width="7" stroke-linecap="round"/><circle cx="500" cy="885" r="14" fill="none" stroke="#18372c" stroke-width="6"/></svg>