<svg xmlns="http://www.w3.org/2000/svg" viewBox="0 0 800 800" role="img" aria-label="Тот же букет сбоку"><title>Тот же букет сбоку</title><rect width="800" height="800" fill="#ece6dc"/><rect x="0" y="560" width="800" height="240" fill="#c9a37a"/><g transform="translate(400 330) rotate(18) translate(-400 -330)"><path d="M150.0,310.0 L364.0,650.0 L436.0,650.0 L650.0,310.0 Q400.0,230.0 150.0,310.0Z" fill="#b58b5f"/><g><path d="M400.0,300.0 L566.6,244.8" stroke="#6f8f7c" stroke-width="2"/><circle cx="423.2" cy="277.1" r="13.1" fill="#9bb7a3"/><circle cx="432.3" cy="304.5" r="13.1" fill="#9bb7a3"/><circle cx="451.4" cy="269.0" r="12.1" fill="#9bb7a3"/><circle cx="459.7" cy="294.2" r="12.1" fill="#9bb7a3"/><circle cx="479.5" cy="260.8" r="11.1" fill="#9bb7a3"/><circle cx="487.1" cy="283.9" r="11.1" fill="#9bb7a3"/><circle cx="507.6" cy="252.7" r="10.0" fill="#9bb7a3"/><circle cx="514.6" cy="273.6" r="10.0" fill="#9bb7a3"/><circle cx="535.7" cy="244.6" r="9.0" fill="#9bb7a3"/><circle cx="542.0" cy="263.4" r="9.0" fill="#9bb7a3"/></g><path d="M432.8,300.0 Q520.4,290.8 548.8,207.4 Q461.2,216.6 432.8,300.0Z" fill="#5b8a6c"/><g><path d="M400.0,300.0 L227.9,250.7" stroke="#6f8f7c" stroke-width="2"/><circle cx="367.3" cy="305.9" r="13.4" fill="#9bb7a3"/><circle cx="375.4" cy="277.6" r="13.4" fill="#9bb7a3"/><circle cx="338.9" cy="296.6" r="12.3" fill="#9bb7a3"/><circle cx="346.4" cy="270.5" r="12.3" fill="#9bb7a3"/><circle cx="310.5" cy="287.3" r="11.3" fill="#9bb7a3"/><circle cx="317.4" cy="263.4" r="11.3" fill="#9bb7a3"/><circle cx="282.2" cy="277.9" r="10.2" fill="#9bb7a3"/><circle cx="288.4" cy="256.3" r="10.2" fill="#9bb7a3"/><circle cx="253.8" cy="268.6" r="9.2" fill="#9bb7a3"/><circle cx="259.4" cy="249.2" r="9.2" fill="#9bb7a3"/></g><path d="M369.9,300.0 Q312.5,211.1 207.8,226.1 Q265.2,314.9 369.9,300.0Z" fill="#5b8a6c"/><g><path d="M400.0,300.0 L468.7,120.2" stroke="#6f8f7c" stroke-width="2"/><circle cx="396.7" cy="264.4" r="14.4" fill="#9bb7a3"/><circle cx="426.2" cy="275.7" r="14.4" fill="#9bb7a3"/><circle cx="409.3" cy="234.9" r="13.2" fill="#9bb7a3"/><circle cx="436.5" cy="245.3" r="13.2" fill="#9bb7a3"/><circle cx="421.9" cy="205.3" r="12.1" fill="#9bb7a3"/><circle cx="446.8" cy="214.8" r="12.1" fill="#9bb7a3"/><circle cx="434.5" cy="175.8" r="11.0" fill="#9bb7a3"/><circle cx="457.1" cy="184.4" r="11.0" fill="#9bb7a3"/><circle cx="447.1" cy="146.3" r="9.9" fill="#9bb7a3"/><circle cx="467.4" cy="154.0" r="9.9" fill="#9bb7a3"/></g><g><path d="M400.0,300.0 L434.2,159.6" stroke="#6f8f7c" stroke-width="2"/><circle cx="394.2" cy="273.8" r="10.8" fill="#9bb7a3"/><circle cx="417.2" cy="279.4" r="10.8" fill="#9bb7a3"/><circle cx="400.8" cy="250.6" r="9.9" fill="#9bb7a3"/><circle cx="422.0" cy="255.8" r="9.9" fill="#9bb7a3"/><circle cx="407.4" cy="227.4" r="9.1" fill="#9bb7a3"/><circle cx="426.8" cy="232.2" r="9.1" fill="#9bb7a3"/><circle cx="414.0" cy="204.3" r="8.3" fill="#9bb7a3"/><circle cx="431.6" cy="208.6" r="8.3" fill="#9bb7a3"/><circle cx="420.6" cy="181.1" r="7.4" fill="#9bb7a3"/><circle cx="436.4" cy="185.0" r="7.4" fill="#9bb7a3"/></g><g><path d="M400.0,300.0 L423.9,149.9" stroke="#6f8f7c" stroke-width="2"/><circle cx="391.7" cy="273.0" r="11.3" fill="#9bb7a3"/><circle cx="416.3" cy="276.9" r="11.3" fill="#9bb7a3"/><circle cx="396.6" cy="248.1" r="10.5" fill="#9bb7a3"/><circle cx="419.3" cy="251.8" r="10.5" fill="#9bb7a3"/><circle cx="401.6" cy="223.3" r="9.6" fill="#9bb7a3"/><circle cx="422.4" cy="226.6" r="9.6" fill="#9bb7a3"/><circle cx="406.5" cy="198.4" r="8.7" fill="#9bb7a3"/><circle cx="425.4" cy="201.4" r="8.7" fill="#9bb7a3"/><circle cx="411.5" cy="173.6" r="7.8" fill="#9bb7a3"/><circle cx="428.4" cy="176.3" r="7.8" fill="#9bb7a3"/></g><path d="M414.6,300.0 Q486.3,211.9 436.3,109.9 Q364.6,198.0 414.6,300.0Z" fill="#3f6b52"/><g><path d="M400.0,300.0 L444.6,107.6" stroke="#6f8f7c" stroke-width="2"/><circle cx="391.6" cy="264.3" r="14.7" fill="#9bb7a3"/><circle cx="423.2" cy="271.6" r="14.7" fill="#9bb7a3"/><circle cx="400.3" cy="232.5" r="13.6" fill="#9bb7a3"/><circle cx="429.4" cy="239.2" r="13.6" fill="#9bb7a3"/><circle cx="409.0" cy="200.7" r="12.4" fill="#9bb7a3"/><circle cx="435.6" cy="206.9" r="12.4" fill="#9bb7a3"/><circle cx="417.6" cy="168.9" r="11.3" fill="#9bb7a3"/><circle cx="441.8" cy="174.5" r="11.3" fill="#9bb7a3"/><circle cx="426.3" cy="137.1" r="10.1" fill="#9bb7a3"/><circle cx="448.0" cy="142.2" r="10.1" fill="#9bb7a3"/></g><g><path d="M400.0,300.0 L419.4,155.6" stroke="#6f8f7c" stroke-width="2"/><circle cx="391.4" cy="274.3" r="10.9" fill="#9bb7a3"/><circle cx="415.1" cy="277.5" r="10.9" fill="#9bb7a3"/><circle cx="395.5" cy="250.4" r="10.0" fill="#9bb7a3"/><circle cx="417.4" cy="253.3" r="10.0" fill="#9bb7a3"/><circle cx="399.7" cy="226.5" r="9.2" fill="#9bb7a3"/><circle cx="419.7" cy="229.2" r="9.2" fill="#9bb7a3"/><circle cx="403.8" cy="202.5" r="8.3" fill="#9bb7a3"/><circle cx="422.0" cy="205.0" r="8.3" fill="#9bb7a3"/><circle cx="408.0" cy="178.6" r="7.5" fill="#9bb7a3"/><circle cx="424.3" cy="180.8" r="7.5" fill="#9bb7a3"/></g><g><path d="M400.0,300.0 L252.7,162.9" stroke="#6f8f7c" stroke-width="2"/><circle cx="364.2" cy="289.2" r="15.0" fill="#9bb7a3"/><circle cx="386.7" cy="265.0" r="15.0" fill="#9bb7a3"/><circle cx="340.5" cy="265.4" r="13.9" fill="#9bb7a3"/><circle cx="361.3" cy="243.1" r="13.9" fill="#9bb7a3"/><circle cx="316.8" cy="241.6" r="12.7" fill="#9bb7a3"/><circle cx="335.9" cy="221.2" r="12.7" fill="#9bb7a3"/><circle cx="293.2" cy="217.8" r="11.5" fill="#9bb7a3"/><circle cx="310.4" cy="199.3" r="11.5" fill="#9bb7a3"/><circle cx="269.5" cy="194.0" r="10.3" fill="#9bb7a3"/><circle cx="285.0" cy="177.4" r="10.3" fill="#9bb7a3"/></g><path d="M384.0,300.0 Q389.7,185.8 288.4,132.7 Q282.6,246.9 384.0,300.0Z" fill="#5b8a6c"/><path d="M402.0,300.0 Q488.8,258.5 487.5,162.4 Q400.7,203.9 402.0,300.0Z" fill="#7fa58a"/><path d="M369.4,300.0 Q461.6,265.2 468.6,167.0 Q376.5,201.8 369.4,300.0Z" fill="#2f5a44"/><path d="M400.0,300.0 l-160.6,-150.3" stroke="#6f8f7c" stroke-width="1.6"/><circle cx="382.1" cy="277.9" r="3" fill="#f7dcd6"/><circle cx="362.0" cy="259.1" r="3" fill="#f7dcd6"/><circle cx="342.0" cy="240.3" r="3" fill="#f7dcd6"/><circle cx="321.9" cy="221.5" r="3" fill="#f7dcd6"/><circle cx="301.8" cy="202.7" r="3" fill="#f7dcd6"/><circle cx="281.7" cy="183.9" r="3" fill="#f7dcd6"/><circle cx="261.6" cy="165.1" r="3" fill="#f7dcd6"/><path d="M400.0,300.0 l-165.3,-145.1" stroke="#6f8f7c" stroke-width="1.6"/><circle cx="381.4" cy="278.4" r="3" fill="#f7dcd6"/><circle cx="360.8" cy="260.3" r="3" fill="#f7dcd6"/><circle cx="340.1" cy="242.2" r="3" fill="#f7dcd6"/><circle cx="319.4" cy="224.0" r="3" fill="#f7dcd6"/><circle cx="298.8" cy="205.9" r="3" fill="#f7dcd6"/><circle cx="278.1" cy="187.7" r="3" fill="#f7dcd6"/><circle cx="257.4" cy="169.6" r="3" fill="#f7dcd6"/><path d="M400.0,300.0 l-41.8,-216.0" stroke="#6f8f7c" stroke-width="1.6"/><circle cx="398.5" cy="271.6" r="3" fill="#ecc06a"/><circle cx="393.3" cy="244.6" r="3" fill="#ecc06a"/><circle cx="388.1" cy="217.6" r="3" fill="#ecc06a"/><circle cx="382.8" cy="190.6" r="3" fill="#ecc06a"/><circle cx="377.6" cy="163.6" r="3" fill="#ecc06a"/><circle cx="372.4" cy="136.6" r="3" fill="#ecc06a"/><circle cx="367.1" cy="109.6" r="3" fill="#ecc06a"/><path d="M400.0,300.0 l-188.8,-112.9" stroke="#6f8f7c" stroke-width="1.6"/><circle cx="377.8" cy="282.2" r="3" fill="#ecc06a"/><circle cx="354.2" cy="268.1" r="3" fill="#ecc06a"/><circle cx="330.6" cy="253.9" r="3" fill="#ecc06a"/><circle cx="307.0" cy="239.8" r="3" fill="#ecc06a"/><circle cx="283.4" cy="225.7" r="3" fill="#ecc06a"/><circle cx="259.8" cy="211.6" r="3" fill="#ecc06a"/><circle cx="236.2" cy="197.5" r="3" fill="#ecc06a"/><circle cx="350.6" cy="156.6" r="60.1" fill="#e9dfcf"/><circle cx="350.6" cy="156.6" r="51.7" fill="#fffdf7"/><path d="M311.0,156.6 A39.7,39.7 0 1 1 374.4,184.3" fill="none" stroke="#e9dfcf" stroke-width="4.2" stroke-linecap="round" transform="rotate(111 350.6 156.6)"/><path d="M323.0,156.6 A27.6,27.6 0 1 1 367.2,175.9" fill="none" stroke="#e9dfcf" stroke-width="4.2" stroke-linecap="round" transform="rotate(128 350.6 156.6)"/><path d="M334.4,156.6 A16.2,16.2 0 1 1 360.4,167.9" fill="none" stroke="#e9dfcf" stroke-width="4.2" stroke-linecap="round" transform="rotate(0 350.6 156.6)"/><circle cx="335.6" cy="138.5" r="13.2" fill="#f4ece0" opacity=".55"/><circle cx="444.3" cy="191.6" r="62.5" fill="#f7dcd6"/><circle cx="444.3" cy="191.6" r="53.7" fill="#f2c4c0"/><path d="M403.0,191.6 A41.2,41.2 0 1 1 469.0,220.5" fill="none" stroke="#f7dcd6" stroke-width="4.4" stroke-linecap="round" transform="rotate(171 444.3 191.6)"/><path d="M415.5,191.6 A28.7,28.7 0 1 1 461.5,211.7" fill="none" stroke="#f7dcd6" stroke-width="4.4" stroke-linecap="round" transform="rotate(181 444.3 191.6)"/><path d="M427.4,191.6 A16.9,16.9 0 1 1 454.4,203.4" fill="none" stroke="#f7dcd6" stroke-width="4.4" stroke-linecap="round" transform="rotate(72 444.3 191.6)"/><circle cx="428.6" cy="172.9" r="13.7" fill="#e9a4a2" opacity=".55"/><circle cx="276.7" cy="193.7" r="33.5" fill="#d98884"/><circle cx="270.9" cy="221.9" r="33.5" fill="#d98884"/><circle cx="252.9" cy="235.7" r="33.5" fill="#d98884"/><circle cx="223.5" cy="233.6" r="33.5" fill="#d98884"/><circle cx="208.9" cy="219.6" r="33.5" fill="#d98884"/><circle cx="204.2" cy="195.1" r="33.5" fill="#d98884"/><circle cx="219.7" cy="170.6" r="33.5" fill="#d98884"/><circle cx="243.1" cy="164.2" r="33.5" fill="#d98884"/><circle cx="269.6" cy="178.2" r="33.5" fill="#d98884"/><circle cx="261.1" cy="207.3" r="25.5" fill="#f2c4c0"/><circle cx="248.4" cy="220.9" r="25.5" fill="#f2c4c0"/><circle cx="229.9" cy="219.5" r="25.5" fill="#f2c4c0"/><circle cx="219.4" cy="204.1" r="25.5" fill="#f2c4c0"/><circle cx="224.9" cy="186.4" r="25.5" fill="#f2c4c0"/><circle cx="242.2" cy="179.6" r="25.5" fill="#f2c4c0"/><circle cx="258.3" cy="188.9" r="25.5" fill="#f2c4c0"/><circle cx="240.6" cy="200.9" r="20.1" fill="#e9a4a2"/><circle cx="246.0" cy="204.3" r="8.7" fill="#f7dcd6" opacity=".7"/><circle cx="590.4" cy="229.6" r="35.9" fill="#d98884"/><circle cx="579.7" cy="252.9" r="35.9" fill="#d98884"/><circle cx="554.6" cy="265.0" r="35.9" fill="#d98884"/><circle cx="526.4" cy="256.5" r="35.9" fill="#d98884"/><circle cx="514.6" cy="240.8" r="35.9" fill="#d98884"/><circle cx="513.1" cy="214.7" r="35.9" fill="#d98884"/><circle cx="538.3" cy="188.2" r="35.9" fill="#d98884"/><circle cx="552.4" cy="186.1" r="35.9" fill="#d98884"/><circle cx="583.5" cy="203.0" r="35.9" fill="#d98884"/><circle cx="573.0" cy="232.4" r="27.3" fill="#f2c4c0"/><circle cx="559.5" cy="247.0" r="27.3" fill="#f2c4c0"/><circle cx="539.6" cy="245.5" r="27.3" fill="#f2c4c0"/><circle cx="528.3" cy="229.0" r="27.3" fill="#f2c4c0"/><circle cx="534.2" cy="210.0" r="27.3" fill="#f2c4c0"/><circle cx="552.8" cy="202.7" r="27.3" fill="#f2c4c0"/><circle cx="570.1" cy="212.7" r="27.3" fill="#f2c4c0"/><circle cx="551.1" cy="225.6" r="21.6" fill="#e9a4a2"/><circle cx="556.8" cy="229.2" r="9.3" fill="#f7dcd6" opacity=".7"/><circle cx="387.4" cy="267.1" r="32.6" fill="#d98884"/><circle cx="376.3" cy="300.2" r="32.6" fill="#d98884"/><circle cx="352.8" cy="309.5" r="32.6" fill="#d98884"/><circle cx="332.7" cy="303.8" r="32.6" fill="#d98884"/><circle cx="317.5" cy="282.7" r="32.6" fill="#d98884"/><circle cx="320.3" cy="257.3" r="32.6" fill="#d98884"/><circle cx="330.0" cy="245.5" r="32.6" fill="#d98884"/><circle cx="358.7" cy="238.4" r="32.6" fill="#d98884"/><circle cx="379.7" cy="250.6" r="32.6" fill="#d98884"/><circle cx="372.1" cy="279.8" r="24.8" fill="#f2c4c0"/><circle cx="359.8" cy="293.1" r="24.8" fill="#f2c4c0"/><circle cx="341.7" cy="291.7" r="24.8" fill="#f2c4c0"/><circle cx="331.5" cy="276.7" r="24.8" fill="#f2c4c0"/><circle cx="336.9" cy="259.4" r="24.8" fill="#f2c4c0"/><circle cx="353.7" cy="252.8" r="24.8" fill="#f2c4c0"/><circle cx="369.4" cy="261.9" r="24.8" fill="#f2c4c0"/><circle cx="352.2" cy="273.7" r="19.6" fill="#e9a4a2"/><circle cx="357.4" cy="276.9" r="8.5" fill="#f7dcd6" opacity=".7"/><ellipse cx="232.4" cy="262.6" rx="10.2" ry="26.9" fill="#fffdf7" transform="rotate(0.0 232.4 295.5)"/><ellipse cx="232.4" cy="262.6" rx="10.2" ry="26.9" fill="#fffdf7" transform="rotate(30.0 232.4 295.5)"/><ellipse cx="232.4" cy="262.6" rx="10.2" ry="26.9" fill="#fffdf7" transform="rotate(60.0 232.4 295.5)"/><ellipse cx="232.4" cy="262.6" rx="10.2" ry="26.9" fill="#fffdf7" transform="rotate(90.0 232.4 295.5)"/><ellipse cx="232.4" cy="262.6" rx="10.2" ry="26.9" fill="#fffdf7" transform="rotate(120.0 232.4 295.5)"/><ellipse cx="232.4" cy="262.6" rx="10.2" ry="26.9" fill="#fffdf7" transform="rotate(150.0 232.4 295.5)"/><ellipse cx="232.4" cy="262.6" rx="10.2" ry="26.9" fill="#fffdf7" transform="rotate(180.0 232.4 295.5)"/><ellipse cx="232.4" cy="262.6" rx="10.2" ry="26.9" fill="#fffdf7" transform="rotate(210.0 232.4 295.5)"/><ellipse cx="232.4" cy="262.6" rx="10.2" ry="26.9" fill="#fffdf7" transform="rotate(240.0 232.4 295.5)"/><ellipse cx="232.4" cy="262.6" rx="10.2" ry="26.9" fill="#fffdf7" transform="rotate(270.0 232.4 295.5)"/><ellipse cx="232.4" cy="262.6" rx="10.2" ry="26.9" fill="#fffdf7" transform="rotate(300.0 232.4 295.5)"/><ellipse cx="232.4" cy="262.6" rx="10.2" ry="26.9" fill="#fffdf7" transform="rotate(330.0 232.4 295.5)"/><circle cx="232.4" cy="295.5" r="16.8" fill="#daa03a"/><ellipse cx="432.0" cy="278.1" rx="7.5" ry="19.9" fill="#fffdf7" transform="rotate(0.0 432.0 302.4)"/><ellipse cx="432.0" cy="278.1" rx="7.5" ry="19.9" fill="#fffdf7" transform="rotate(30.0 432.0 302.4)"/><ellipse cx="432.0" cy="278.1" rx="7.5" ry="19.9" fill="#fffdf7" transform="rotate(60.0 432.0 302.4)"/><ellipse cx="432.0" cy="278.1" rx="7.5" ry="19.9" fill="#fffdf7" transform="rotate(90.0 432.0 302.4)"/><ellipse cx="432.0" cy="278.1" rx="7.5" ry="19.9" fill="#fffdf7" transform="rotate(120.0 432.0 302.4)"/><ellipse cx="432.0" cy="278.1" rx="7.5" ry="19.9" fill="#fffdf7" transform="rotate(150.0 432.0 302.4)"/><ellipse cx="432.0" cy="278.1" rx="7.5" ry="19.9" fill="#fffdf7" transform="rotate(180.0 432.0 302.4)"/><ellipse cx="432.0" cy="278.1" rx="7.5" ry="19.9" fill="#fffdf7" transform="rotate(210.0 432.0 302.4)"/><ellipse cx="432.0" cy="278.1" rx="7.5" ry="19.9" fill="#fffdf7" transform="rotate(240.0 432.0 302.4)"/><ellipse cx="432.0" cy="278.1" rx="7.5" ry="19.9" fill="#fffdf7" transform="rotate(270.0 432.0 302.4)"/><ellipse cx="432.0" cy="278.1" rx="7.5" ry="19.9" fill="#fffdf7" transform="rotate(300.0 432.0 302.4)"/><ellipse cx="432.0" cy="278.1" rx="7.5" ry="19.9" fill="#fffdf7" transform="rotate(330.0 432.0 302.4)"/><circle cx="432.0" cy="302.4" r="12.4" fill="#daa03a"/><ellipse cx="520.4" cy="304.4" rx="7.5" ry="19.9" fill="#fffdf7" transform="rotate(0.0 520.4 328.7)"/><ellipse cx="520.4" cy="304.4" rx="7.5" ry="19.9" fill="#fffdf7" transform="rotate(30.0 520.4 328.7)"/><ellipse cx="520.4" cy="304.4" rx="7.5" ry="19.9" fill="#fffdf7" transform="rotate(60.0 520.4 328.7)"/><ellipse cx="520.4" cy="304.4" rx="7.5" ry="19.9" fill="#fffdf7" transform="rotate(90.0 520.4 328.7)"/><ellipse cx="520.4" cy="304.4" rx="7.5" ry="19.9" fill="#fffdf7" transform="rotate(120.0 520.4 328.7)"/><ellipse cx="520.4" cy="304.4" rx="7.5" ry="19.9" fill="#fffdf7" transform="rotate(150.0 520.4 328.7)"/><ellipse cx="520.4" cy="304.4" rx="7.5" ry="19.9" fill="#fffdf7" transform="rotate(180.0 520.4 328.7)"/><ellipse cx="520.4" cy="304.4" rx="7.5" ry="19.9" fill="#fffdf7" transform="rotate(210.0 520.4 328.7)"/><ellipse cx="520.4" cy="304.4" rx="7.5" ry="19.9" fill="#fffdf7" transform="rotate(240.0 520.4 328.7)"/><ellipse cx="520.4" cy="304.4" rx="7.5" ry="19.9" fill="#fffdf7" transform="rotate(270.0 520.4 328.7)"/><ellipse cx="520.4" cy="304.4" rx="7.5" ry="19.9" fill="#fffdf7" transform="rotate(300.0 520.4 328.7)"/><ellipse cx="520.4" cy="304.4" rx="7.5" ry="19.9" fill="#fffdf7" transform="rotate(330.0 520.4 328.7)"/><circle cx="520.4" cy="328.7" r="12.4" fill="#daa03a"/><circle cx="351.0" cy="350.6" r="31.3" fill="#d98884"/><circle cx="341.7" cy="369.2" r="31.3" fill="#d98884"/><circle cx="320.3" cy="379.5" r="31.3" fill="#d98884"/><circle cx="303.1" cy="376.7" r="31.3" fill="#d98884"/><circle cx="287.4" cy="362.8" r="31.3" fill="#d98884"/><circle cx="283.3" cy="338.3" r="31.3" fill="#d98884"/><circle cx="298.1" cy="316.4" r="31.3" fill="#d98884"/><circle cx="317.6" cy="310.8" r="31.3" fill="#d98884"/><circle cx="346.1" cy="326.8" r="31.3" fill="#d98884"/><circle cx="336.1" cy="351.2" r="23.8" fill="#f2c4c0"/><circle cx="324.3" cy="363.9" r="23.8" fill="#f2c4c0"/><circle cx="307.0" cy="362.6" r="23.8" fill="#f2c4c0"/><circle cx="297.2" cy="348.2" r="23.8" fill="#f2c4c0"/><circle cx="302.3" cy="331.6" r="23.8" fill="#f2c4c0"/><circle cx="318.5" cy="325.3" r="23.8" fill="#f2c4c0"/><circle cx="333.5" cy="334.0" r="23.8" fill="#f2c4c0"/><circle cx="317.0" cy="345.2" r="18.8" fill="#e9a4a2"/><circle cx="322.0" cy="348.4" r="8.1" fill="#f7dcd6" opacity=".7"/><circle cx="418.8" cy="391.0" r="31.7" fill="#d98884"/><circle cx="409.5" cy="412.9" r="31.7" fill="#d98884"/><circle cx="387.5" cy="423.8" r="31.7" fill="#d98884"/><circle cx="366.7" cy="419.4" r="31.7" fill="#d98884"/><circle cx="354.3" cy="407.3" r="31.7" fill="#d98884"/><circle cx="352.9" cy="373.5" r="31.7" fill="#d98884"/><circle cx="369.7" cy="357.4" r="31.7" fill="#d98884"/><circle cx="390.1" cy="354.9" r="31.7" fill="#d98884"/><circle cx="411.0" cy="367.2" r="31.7" fill="#d98884"/><circle cx="403.3" cy="395.2" r="24.1" fill="#f2c4c0"/><circle cx="391.4" cy="408.0" r="24.1" fill="#f2c4c0"/><circle cx="373.8" cy="406.7" r="24.1" fill="#f2c4c0"/><circle cx="363.9" cy="392.2" r="24.1" fill="#f2c4c0"/><circle cx="369.1" cy="375.4" r="24.1" fill="#f2c4c0"/><circle cx="385.5" cy="369.0" r="24.1" fill="#f2c4c0"/><circle cx="400.7" cy="377.8" r="24.1" fill="#f2c4c0"/><circle cx="384.0" cy="389.2" r="19.0" fill="#e9a4a2"/><circle cx="389.0" cy="392.3" r="8.2" fill="#f7dcd6" opacity=".7"/><path d="M190.0,420.0 L360.0,660.0 L440.0,660.0 L610.0,420.0 Q460.0,490.0 400.0,460.0 Q340.0,490.0 190.0,420.0Z" fill="#c9a37a"/><path d="M300.0,470.0 L376.0,620.0" stroke="#b58b5f" stroke-width="2" opacity=".6"/><path d="M510.0,470.0 L428.0,610.0" stroke="#b58b5f" stroke-width="2" opacity=".6"/><rect x="340.0" y="536.0" width="120.0" height="26.0" rx="3" fill="#e5775b"/><path d="M400.0,548.0 q-60.0,-50.0 -76.0,0 q20.0,40.0 76.0,0Z M400.0,548.0 q60.0,-50.0 76.0,0 q-20.0,40.0 -76.0,0Z" fill="#e5775b"/><path d="M392.0,556.0 l-36.0,80.0 M408.0,556.0 l40.0,76.0" stroke="#e5775b" stroke-width="12.0" stroke-linecap="round"/></g></svg>